<?xml version="1.0" encoding="UTF-8"?>
<svg id="_레이어_2" data-name="레이어 2" xmlns="http://www.w3.org/2000/svg" viewBox="0 0 22.69 22.36">
  <g id="_레이어_1-2" data-name="레이어 1">
    <path d="M11.35,22.36c-.07,0-.14-.02-.2-.07-.46-.37-11.15-9.06-11.15-16.13C0,3.06,1.59,.76,4.16,.15c2.7-.64,5.58,.79,7.18,3.5C13.1,.56,16.21-.32,18.47,.19c3.11,.71,4.22,3.54,4.22,5.96,0,2.98-1.88,6.61-5.6,10.78-2.74,3.08-5.53,5.33-5.55,5.35-.06,.05-.13,.07-.2,.07ZM5.49,.62c-.39,0-.78,.04-1.19,.14C2,1.31,.63,3.32,.63,6.15c0,6.26,9.24,14.24,10.72,15.48,1.48-1.24,10.72-9.22,10.72-15.48,0-2.82-1.39-4.82-3.73-5.35-2.15-.49-5.17,.44-6.7,3.65-.05,.11-.16,.18-.28,.18h0c-.12,0-.23-.07-.28-.17-.99-1.97-3.07-3.83-5.57-3.83Z" style="fill: #1534b1;"/>
  </g>
</svg>